<?xml version="1.0" standalone="no"?>
<!DOCTYPE svg PUBLIC "-//W3C//DTD SVG 20010904//EN"
 "http://www.w3.org/TR/2001/REC-SVG-20010904/DTD/svg10.dtd">
<svg version="1.0" xmlns="http://www.w3.org/2000/svg"
 width="512.000000pt" height="512.000000pt" viewBox="0 0 512.000000 512.000000"
 preserveAspectRatio="xMidYMid meet">

<g transform="translate(0.000000,512.000000) scale(0.100000,-0.100000)"
fill="#000000" stroke="none">
<path d="M2825 4680 c-94 -25 -156 -52 -234 -105 -46 -30 -407 -385 -1168
-1147 l-1101 -1103 -45 -95 c-55 -115 -71 -185 -70 -310 1 -151 47 -288 137
-413 24 -34 271 -288 548 -564 428 -427 508 -502 538 -508 19 -3 778 -4 1686
-3 l1650 3 42 27 c126 84 126 272 0 356 l-42 27 -740 3 -740 2 750 753 c548
550 758 767 782 809 152 260 123 573 -77 819 -79 98 -1293 1308 -1351 1346
-171 114 -380 152 -565 103z m283 -429 c21 -11 321 -304 682 -665 722 -723
704 -702 698 -826 -2 -41 -12 -82 -26 -110 -16 -33 -220 -243 -747 -770 l-725
-725 -810 810 -810 810 718 718 c394 395 732 727 750 739 82 51 193 59 270 19z
m-975 -3399 l-548 -2 -447 447 c-308 308 -455 462 -474 496 -18 33 -28 70 -32
113 -9 113 4 132 232 362 l201 202 807 -807 808 -808 -547 -3z"/>
</g>
</svg>
